<svg width="2169" height="991" viewBox="0 0 2169 991" fill="white" xmlns="http://www.w3.org/2000/svg">
<path fill-rule="evenodd" clip-rule="evenodd" d="M322 0.923419C321.971 1.64042 325.976 18.5154 330.899 38.4234C349.518 113.701 359.094 162.746 364.13 208.618C366.139 226.922 365.85 272.646 363.632 287.435C357.992 325.031 345.303 354.967 321.728 386.296C300.514 414.488 273.813 439.723 222.947 479.659C100.676 575.653 33.1663 656.532 9.29431 735.618C2.54731 757.973 -0.220652 782.178 1.11835 807.118C3.15135 844.959 18.5403 884.652 45.5923 921.833C49.6803 927.451 53.4003 932.28 53.8583 932.563C54.3173 932.847 56.1463 928.475 57.9233 922.848C70.3003 883.657 98.0563 842.659 143.947 795.782C176.109 762.93 195.343 745.712 272.447 680.762C331.547 630.977 352.977 612.06 374 591.118C419.629 545.666 442.018 502.251 451.099 441.618C452.02 435.466 452.437 422.491 452.416 400.618C452.389 373.267 452.063 366.252 450.169 352.332C440.585 281.878 415.278 201.754 371.457 103.118C352.851 61.2394 322.127 -2.24558 322 0.923419ZM161.835 116.072C108.805 121.536 64.1513 157.133 47.5613 207.167C42.1913 223.361 40.5923 235.31 41.2323 254.468C41.9773 276.798 45.4263 290.209 55.5583 310.168C88.8484 375.748 169.034 401.878 234.663 368.531C247.88 361.816 256.292 355.768 267.592 344.857C288.391 324.775 301.689 298.946 306.581 269.13C308.467 257.631 307.918 233.354 305.528 222.618C291.858 161.197 241.935 118.895 179.447 115.785C173.947 115.511 166.021 115.64 161.835 116.072ZM403.947 130.022C403.947 130.519 406.926 138.278 410.567 147.264C441.704 224.11 461.011 291.512 469.104 351.618C471.086 366.341 471.396 372.972 471.42 401.118C471.449 436.029 470.777 443.388 465.302 468.118C456.48 507.97 437.145 547.075 410.52 578.915L402.077 589.012L407.59 602.751C447.096 701.193 454.795 766.162 432.458 812.618C430.607 816.468 427.26 822.446 425.02 825.902C422.78 829.358 420.947 832.395 420.947 832.652C420.947 832.908 534.797 833.118 673.947 833.118H926.947V760.618V688.118H744.447H561.947V613.618V539.118H723.447H884.947V468.118V397.118H723.447H561.947V335.618V274.118H738.447H914.947V201.618V129.118H659.447C507.946 129.118 403.947 129.486 403.947 130.022ZM1216.04 131.363C1215.26 133.419 1089.36 483.363 1000.36 730.86C980.331 786.543 963.947 832.333 963.947 832.615C963.947 832.897 1006.13 833.013 1057.68 832.873L1151.42 832.618L1171.4 768.364L1191.38 704.11L1308.33 704.364L1425.28 704.618L1446.7 768.868L1468.11 833.118H1565.03C1618.33 833.118 1661.94 832.78 1661.94 832.368C1661.93 831.956 1606.19 673.668 1538.06 480.618L1414.2 129.618L1315.55 129.363L1216.9 129.108L1216.04 131.363ZM1991.66 372.368C1991.34 587.916 1991.12 616.999 1989.71 627.742C1986.33 653.46 1983.15 666.016 1977.11 677.583C1966.8 697.326 1945.24 707.337 1916.45 705.747C1891.7 704.381 1875.79 696.761 1865.71 681.447C1853.29 662.576 1850 644.068 1849.97 592.868L1849.95 559.118H1766.09H1682.23L1681.6 564.368C1681.25 567.256 1680.96 579.293 1680.96 591.118C1680.94 693.101 1708.69 766.28 1762.78 806.894C1791.44 828.409 1825.6 841.222 1871.95 847.835C1889.81 850.383 1954.34 850.36 1973.45 847.798C2036.43 839.354 2081.49 818.718 2111.23 784.7C2144.5 746.647 2162.94 688.912 2167.93 607.118C2168.56 596.866 2168.94 503.24 2168.94 359.868L2168.95 129.118H2080.48H1992.01L1991.66 372.368ZM1308.61 320.118C1306.38 325.947 1234.88 557.387 1235.21 557.715C1235.44 557.944 1269.58 558.015 1311.08 557.874L1386.54 557.618L1348.43 439.618C1327.47 374.718 1310.06 320.943 1309.75 320.118C1309.24 318.785 1309.12 318.785 1308.61 320.118ZM385.597 611.868C391.985 648.965 393.341 661.837 393.317 685.118C393.297 705.081 393.109 707.31 390.696 716.3C383.354 743.647 368.733 760.524 328.447 788.152C265.605 831.248 234.91 866.073 227.289 902.922C224.734 915.271 225.803 932.015 229.934 944.358C232.923 953.293 240.241 967.821 243.297 970.891C244.321 971.92 245.548 970.194 249.694 961.891C255.866 949.533 264.006 939.172 278.586 925.118C292.625 911.586 301.81 904.282 338.947 877.118C386.748 842.154 398.609 831.916 408.426 817.149C421.875 796.919 426.649 777.418 425.662 746.745C424.689 716.53 417.853 685.762 402.303 641.618C395.924 623.509 383.856 593.118 383.043 593.118C382.672 593.118 383.822 601.556 385.597 611.868ZM1145.57 871.368C1142.88 875.6 1136.28 886.615 1135.08 888.868C1133.94 890.996 1134.06 891.118 1137.28 891.118C1140.42 891.118 1141.32 890.306 1148.82 880.605C1153.29 874.823 1156.95 869.873 1156.95 869.605C1156.95 869.337 1154.71 869.118 1151.97 869.118C1147.9 869.118 1146.73 869.527 1145.57 871.368ZM2124.05 879.437C2120.7 885.112 2117.95 890.062 2117.95 890.437C2117.95 890.811 2119.41 891.096 2121.2 891.069C2124.13 891.024 2125.2 890.021 2132.2 880.736C2136.46 875.079 2139.95 870.152 2139.95 869.785C2139.95 869.418 2137.75 869.118 2135.05 869.118H2130.16L2124.05 879.437ZM484.541 899.073C478.772 901.39 474.506 905.175 471.855 910.328C469.176 915.537 469.225 926.782 471.95 932.124C475.418 938.921 478.941 940.642 504.506 948.022C508.388 949.142 513.113 951.094 515.006 952.359C525.048 959.068 523.787 973.239 512.636 978.976C506.341 982.215 495.666 982.427 488.947 979.447C483.209 976.903 478.229 971.262 477.418 966.389C476.391 960.215 476.299 960.118 471.433 960.118H466.856L467.453 963.868C468.966 973.375 470.38 976.646 474.954 981.221C481.3 987.567 487.498 989.597 500.447 989.57C509.063 989.553 511.208 989.195 515.947 986.983C526.644 981.989 530.389 976.204 530.423 964.618C530.453 954.591 528.318 949.981 521.506 945.363C517.057 942.346 513.003 940.886 493.012 935.1C482.716 932.12 478.947 928.365 478.947 921.086C478.947 914.924 481.282 910.517 486.026 907.724C490.087 905.333 501.315 904.424 506.331 906.08C513.504 908.447 518.947 915.137 518.947 921.586C518.947 923.953 519.268 924.118 523.884 924.118H528.821L528.293 920.368C526.934 910.728 522.396 903.968 514.515 899.845C508.548 896.723 491.486 896.284 484.541 899.073ZM566.152 898.958C556.731 902.308 548.868 910.368 545.04 920.598C540.734 932.107 540.465 952.833 544.474 964.195C548.346 975.168 557.075 984.628 566.227 987.768C573.632 990.31 587.699 990.229 594.838 987.604C605.295 983.759 613.376 973.736 614.643 963.04L615.226 958.118H610.586C606.197 958.118 605.946 958.266 605.925 960.868C605.895 964.652 602.814 971.036 599.34 974.515C592.176 981.688 578.184 983.851 568.708 979.251C562.657 976.313 556.634 969.468 553.763 962.265C551.818 957.387 551.512 954.78 551.512 943.118C551.512 931.5 551.822 928.84 553.737 924.039C556.488 917.144 561.84 910.754 567.304 907.841C573.316 904.636 587.609 904.653 593.652 907.873C598.735 910.581 603.063 915.742 604.532 920.846C605.571 924.457 605.82 924.631 610.368 924.926C614.537 925.197 615.06 925.013 614.64 923.426C614.376 922.432 613.603 919.476 612.921 916.858C611.277 910.544 605.356 903.955 598.161 900.433C593.188 897.998 591.085 897.599 581.947 897.356C573.678 897.135 570.322 897.476 566.152 898.958ZM652.81 898.632C645.544 900.952 638.874 906.101 634.218 912.984C628.954 920.766 626.989 927.092 626.256 938.62C624.756 962.183 634.106 980.744 650.745 987.235C655.284 989.005 658.487 989.459 666.447 989.459C679.034 989.459 685.546 987.165 693.438 979.952C702.591 971.587 706.947 959.899 706.947 943.705C706.947 933.008 705.606 926.124 702.038 918.499C698.112 910.11 692.958 904.741 685.128 900.886C679.104 897.921 677.598 897.614 667.986 897.393C660.829 897.229 655.959 897.626 652.81 898.632ZM990.447 898.465C980.83 901.631 973.567 907.932 968.994 917.077C965.011 925.041 963.688 931.865 963.778 943.97C963.908 961.248 967.976 972.362 977.208 980.663C984.28 987.021 991.291 989.43 1002.99 989.522C1011.83 989.591 1013.02 989.355 1019.2 986.315C1023.08 984.406 1027.29 981.364 1029.28 979.042C1032.56 975.211 1032.72 975.142 1033.31 977.334C1033.64 978.59 1033.93 981.306 1033.93 983.368C1033.95 986.984 1034.07 987.118 1037.45 987.118H1040.95V964.118V941.118H1022.45H1003.95V945.618V950.118H1018.58H1033.2L1032.55 954.368C1031.22 962.986 1028.75 968.406 1024.02 973.142C1018.48 978.679 1012.18 981.118 1003.4 981.118C990.878 981.118 983.041 976.134 977.303 964.524C973.925 957.688 973.577 956.18 973.146 946.487C972.607 934.36 973.883 926.98 977.769 919.759C983.361 909.367 992.729 904.549 1005.82 905.331C1017.65 906.038 1026.01 911.481 1029.57 920.791C1031.17 924.98 1031.36 925.118 1035.58 925.118C1039.49 925.118 1039.95 924.874 1039.95 922.778C1039.95 919.174 1034.21 908.515 1030.64 905.498C1028.88 904.013 1024.97 901.645 1021.95 900.236C1017.26 898.054 1014.81 897.634 1005.45 897.411C998.357 897.241 993.025 897.616 990.447 898.465ZM1188.95 898C1171.26 903.774 1161.98 919.299 1161.98 943.118C1161.98 964.876 1169.17 979.163 1183.73 986.331C1189.98 989.41 1191.04 989.613 1200.43 989.538C1208.26 989.476 1211.69 988.975 1216.12 987.245C1226.13 983.341 1233.72 973.52 1235.35 962.368L1235.97 958.118H1231.62H1227.28L1225.66 963.868C1222.45 975.281 1214.05 981.377 1201.45 981.447C1185.27 981.537 1175.14 971.69 1171.88 952.708C1168.67 934.07 1174.86 915.358 1186.48 908.546C1192.08 905.264 1202.47 904.165 1209.45 906.117C1215.82 907.901 1222.5 914.076 1224.67 920.189C1226.4 925.071 1226.46 925.118 1230.77 925.118H1235.12L1234.42 920.868C1232.89 911.705 1227.13 904.484 1217.95 900.233C1213.33 898.091 1210.77 897.643 1201.95 897.433C1196.17 897.297 1190.32 897.552 1188.95 898ZM1273.27 898.557C1261.17 902.341 1251.4 913.715 1247.88 928.118C1246.01 935.756 1246.23 952.138 1248.32 960.118C1252.66 976.7 1263.74 986.865 1280.28 989.436C1298.01 992.193 1314.34 984.306 1321.77 969.397C1325.88 961.151 1327.07 955.221 1327.04 943.187C1326.99 919.509 1318.17 904.742 1300.52 898.782C1294.55 896.767 1279.4 896.642 1273.27 898.557ZM397.947 943.118V987.118H427.947H457.947V983.118V979.118H432.447H406.947V962.618V946.118H429.447H451.947V942.118V938.118H429.447H406.947V922.618V907.118H431.447H455.947V903.118V899.118H426.947H397.947V943.118ZM721.947 943.132V987.146L753.177 986.882L784.408 986.618L789.344 973.347L794.281 960.076L813.275 960.347L832.269 960.618L837.046 973.473C839.673 980.543 842.028 986.532 842.278 986.782C842.528 987.032 844.746 987.097 847.208 986.927L851.683 986.618L835.07 942.825L818.456 899.033L813.026 899.325L807.595 899.618L792.021 940.776C783.455 963.412 776.302 981.3 776.124 980.526C775.858 979.367 771.835 979.118 753.374 979.118H730.947V939.118V899.118H726.447H721.947V943.132ZM914.459 900.868C912.271 906.324 881.947 986.406 881.947 986.729C881.947 986.943 884.085 987.113 886.697 987.108L891.447 987.097L896.447 973.613L901.447 960.128L920.447 960.123L939.447 960.118L944.319 973.618L949.191 987.118H954.176C958.518 987.118 959.073 986.892 958.477 985.368C956.925 981.401 927.667 904.401 926.748 901.868C925.832 899.34 925.324 899.118 920.456 899.118C916.347 899.118 915.004 899.51 914.459 900.868ZM1057.95 943.037V987.118H1062.45H1066.95V967.517V947.916L1083.88 948.267C1107.37 948.754 1107.76 949.108 1109.92 971.691C1111.45 987.821 1111.13 987.118 1117.01 987.118C1122.06 987.118 1122.73 986.45 1120.97 983.164C1120.44 982.161 1119.51 976.003 1118.92 969.479C1117.54 954.353 1116.5 950.513 1112.74 946.753C1111.06 945.076 1110.17 943.543 1110.77 943.345C1113.38 942.475 1117.17 938.605 1119.17 934.773C1120.84 931.587 1121.34 928.87 1121.34 923.118C1121.34 912.067 1117.39 905.429 1108.43 901.436C1105.07 899.938 1100.8 899.604 1081.2 899.308L1057.95 898.957V943.037ZM1136.95 943.118V987.118H1141.95H1146.95V943.118V899.118H1141.95H1136.95V943.118ZM1341.95 943.118V987.118H1373.23H1404.52L1409.48 973.624L1414.45 960.13L1433.48 960.124L1452.51 960.118L1457.43 973.618L1462.35 987.118H1467.15C1469.79 987.118 1471.95 986.957 1471.95 986.761C1471.95 986.564 1465.38 969.127 1457.36 948.011C1449.34 926.895 1441.88 907.256 1440.79 904.368L1438.8 899.118H1433.46H1428.12L1425.18 906.868C1423.56 911.131 1416.44 929.912 1409.35 948.605C1402.27 967.297 1396.32 981.81 1396.14 980.855C1395.83 979.267 1393.87 979.118 1373.37 979.118H1350.95V939.118V899.118H1346.45H1341.95V943.118ZM1512.95 943.033V987.118H1532.73C1554.67 987.118 1560.33 986.202 1567.01 981.574C1576.39 975.071 1580.91 964.283 1581.65 946.618C1582.45 927.474 1578.69 915.567 1569.12 906.965C1561.79 900.369 1559.5 899.865 1534.7 899.377L1512.95 898.949V943.033ZM1596.95 943.118V987.118H1626.95H1656.95V983.118V979.118H1631.45H1605.95V962.618V946.118H1628.45H1650.95V942.118V938.118H1628.45H1605.95V922.618V907.118H1630.95H1655.95V903.118V899.118H1626.45H1596.95V943.118ZM1734.76 934.868C1734.49 965.695 1734.22 971.125 1732.78 974.302C1730.65 978.998 1726.07 981.404 1719.26 981.404C1710.02 981.404 1705.96 976.986 1705.18 966.086L1704.68 959.118H1700.17H1695.67L1696.19 967.545C1696.86 978.201 1699.5 983.493 1705.96 987.096C1709.77 989.219 1711.74 989.599 1718.95 989.597C1733.3 989.594 1740.64 984.271 1742.93 972.208C1743.49 969.235 1743.95 951.755 1743.95 932.982V899.118H1739.51H1735.06L1734.76 934.868ZM1761.14 933.368C1761.44 966.664 1761.51 967.757 1763.75 972.618C1768.21 982.31 1774.87 987.175 1786.43 989.188C1805.35 992.483 1820.58 985.736 1825.82 971.737C1827.84 966.343 1827.95 964.278 1827.95 932.58V899.118H1823.45H1818.95L1818.94 930.868C1818.94 949.052 1818.51 964.164 1817.93 966.236C1815.23 975.965 1807.81 981.165 1796.26 981.428C1783.55 981.717 1776.73 978.201 1772.57 969.211C1770.57 964.875 1770.43 962.788 1770.14 931.868L1769.82 899.118H1765.33H1760.83L1761.14 933.368ZM1845.95 943.118V987.118H1850.44H1854.92L1855.19 950.737L1855.45 914.357L1879.29 950.737L1903.13 987.118H1908.04H1912.95V943.118V899.118H1908.96H1904.97L1904.71 935.808L1904.45 972.498L1880.45 935.858L1856.45 899.219L1851.2 899.168L1845.95 899.118V943.118ZM1931.95 943.022V987.118H1952.29C1974.33 987.118 1978.94 986.374 1986.05 981.667C1990.94 978.432 1995.23 972.578 1998.08 965.263C1999.83 960.753 2000.36 956.904 2000.71 946.118C2001.34 926.746 1998.44 916.609 1989.81 907.976C1982.21 900.383 1979.47 899.715 1954.2 899.295L1931.95 898.925V943.022ZM2016.95 943.118V987.118H2021.45H2025.95V943.118V899.118H2021.45H2016.95V943.118ZM2067.48 900.868C2066.98 902.145 2039.02 975.778 2035.21 985.868C2034.87 986.762 2036.13 987.118 2039.63 987.118H2044.52L2049.48 973.624L2054.45 960.13L2073.48 960.124L2092.51 960.118L2097.43 973.618L2102.35 987.118H2107.15C2109.79 987.118 2111.95 986.946 2111.95 986.736C2111.95 986.526 2105.38 969.088 2097.35 947.986C2089.32 926.884 2081.86 907.256 2080.78 904.368L2078.8 899.118H2073.48C2069.34 899.118 2068.01 899.506 2067.48 900.868ZM2120.95 943.118V987.118H2125.45H2129.95V943.118V899.118H2125.45H2120.95V943.118ZM654.427 907.475C640.656 913.888 633.159 931.574 635.938 951.089C638.673 970.29 649.671 981.302 666.191 981.382C683.157 981.464 694.356 970.547 697.18 951.176C700.179 930.6 691.631 911.606 677.152 906.672C670.238 904.316 660.47 904.661 654.427 907.475ZM1276.7 906.486C1267.79 909.803 1261.08 917.588 1257.79 928.398C1256.05 934.123 1255.77 937.123 1256.14 946.018C1256.52 955.348 1256.98 957.585 1259.64 963.267C1264.6 973.88 1271.05 979.051 1281.87 981.104C1290.96 982.827 1299.61 980.311 1306.53 973.936C1315.08 966.052 1318.51 955.72 1317.7 940.25C1317.09 928.537 1314.53 921.2 1308.79 914.679C1302.94 908.031 1298.13 905.845 1288.45 905.43C1283.26 905.208 1279.13 905.579 1276.7 906.486ZM1066.95 923.62V940.32L1083.7 939.962C1099.2 939.631 1100.76 939.425 1104.66 937.197C1109.67 934.335 1111.95 930.095 1111.95 923.618C1111.95 917.429 1109.57 912.67 1105.09 909.884C1101.74 907.802 1100.05 907.59 1084.2 907.269L1066.95 906.92V923.62ZM1521.95 943.101V979.324L1538.2 978.935C1556.91 978.488 1560.65 977.275 1565.97 969.927C1575.72 956.467 1574.71 925.911 1564.14 914.776C1558.45 908.78 1554.93 907.784 1537.7 907.311L1521.95 906.879V943.101ZM1940.95 942.999V979.118H1955.27C1973.44 979.118 1978.25 977.851 1983.73 971.623C1989.64 964.918 1991.45 958.211 1991.44 943.118C1991.43 924.513 1987.32 914.9 1977.29 910.036C1972.99 907.949 1970.7 907.643 1956.7 907.284L1940.95 906.879V942.999ZM912.626 930.303C908.402 941.55 904.947 951.06 904.947 951.436C904.947 951.811 911.922 952.118 920.447 952.118C928.972 952.118 935.947 951.96 935.947 951.766C935.947 951.496 927.489 928.817 921.018 911.735C920.508 910.39 918.113 915.689 912.626 930.303ZM1425.95 929.868C1421.91 940.73 1418.41 950.181 1418.17 950.868C1417.83 951.833 1421.29 952.118 1433.34 952.118C1441.92 952.118 1448.95 951.881 1448.95 951.592C1448.95 951.026 1433.87 910.784 1433.5 910.368C1433.38 910.23 1429.98 919.005 1425.95 929.868ZM2065.95 929.868C2061.91 940.73 2058.41 950.181 2058.17 950.868C2057.83 951.833 2061.29 952.118 2073.34 952.118C2081.92 952.118 2088.95 951.874 2088.95 951.575C2088.95 951.033 2073.86 910.842 2073.48 910.368C2073.37 910.23 2069.98 919.005 2065.95 929.868ZM804.822 931.632L797.197 952.118H813.063H828.93L826.583 945.868C825.292 942.431 821.848 933.206 818.929 925.368C816.01 917.53 813.357 911.124 813.034 911.132C812.711 911.139 809.016 920.364 804.822 931.632Z" fill="white"/>
</svg>
