<svg width="450" height="464" viewBox="0 0 450 464" fill="none" xmlns="http://www.w3.org/2000/svg">
<path fill-rule="evenodd" clip-rule="evenodd" d="M217.471 1.39954C214.136 2.85254 6.90809 206.532 3.26509 211.936C-1.65791 219.243 1.47609 231.159 9.52009 235.715C13.2321 237.817 14.6941 237.97 31.2371 237.986L48.9741 238.002L49.2371 345.752L49.5001 453.502L51.8341 456.775C53.1181 458.575 55.9131 460.937 58.0441 462.025C61.7601 463.92 64.0941 464.002 114.5 464.002C164.574 464.002 167.261 463.91 170.885 462.061C175.855 459.525 180.627 454.009 181.94 449.279C182.617 446.842 182.991 424.715 182.994 386.926L183 328.351L185.581 325.926L188.161 323.502H225H261.839L264.419 325.926L267 328.351L267.006 386.926C267.009 424.715 267.383 446.842 268.06 449.279C269.373 454.009 274.145 459.525 279.115 462.061C282.739 463.91 285.426 464.002 335.5 464.002C385.906 464.002 388.24 463.92 391.956 462.025C394.087 460.937 396.882 458.575 398.166 456.775L400.5 453.502L400.763 345.752L401.026 238.002L418.763 237.986C435.306 237.97 436.768 237.817 440.48 235.715C448.534 231.153 451.659 219.243 446.723 211.918C442.481 205.624 235.232 2.27854 231.861 1.10254C227.659 -0.361461 221.208 -0.22846 217.471 1.39954ZM121.5 117.575C64.8501 173.381 18.3551 219.707 18.1771 220.522C17.9011 221.785 20.4431 222.002 35.5411 222.002C51.6401 222.002 53.5621 222.19 56.9541 224.096C59.0031 225.248 61.5401 227.611 62.5901 229.346C64.4301 232.386 64.5181 236.44 65.0001 340.002L65.5001 447.502L113.798 447.762C145.486 447.932 162.757 447.667 164.018 446.992C165.878 445.997 165.95 443.973 166.22 385.233C166.497 325.183 166.524 324.457 168.658 320.502C171.484 315.266 175.452 311.594 181 309.083C185.282 307.145 187.415 307.045 225 307.034C264.428 307.022 264.509 307.026 269.571 309.383C272.36 310.681 276.06 313.464 277.793 315.567C284.068 323.179 284 322.4 284 387.145C284 444.429 284.05 445.958 285.952 446.976C287.252 447.672 304.045 447.934 336.202 447.762L384.5 447.502L385 340.002C385.482 236.44 385.57 232.386 387.41 229.346C388.46 227.611 390.997 225.248 393.046 224.096C396.436 222.191 398.361 222.002 414.386 222.002C427.815 222.002 431.998 221.705 431.992 220.752C431.984 219.658 226.738 16.8135 225.124 16.3055C224.781 16.1975 178.15 61.7685 121.5 117.575Z" fill="black"/>
</svg>
