<svg width="513" height="513" viewBox="0 0 513 513" fill="none" xmlns="http://www.w3.org/2000/svg">
<g clip-path="url(#clip0_13_3)">
<path fill-rule="evenodd" clip-rule="evenodd" d="M181.92 1.5541C180.545 1.7561 176.045 2.4061 171.92 2.9981C154.346 5.5221 130.454 13.1111 113.88 21.4351C55.1972 50.9081 15.6832 103.75 3.22621 169.415C0.822206 182.089 0.317206 216.834 2.33321 230.915C8.77321 275.904 28.6762 315.708 60.6322 347.51C109.099 395.743 177.627 416.156 244.695 402.339C272.859 396.537 301.747 383.659 323.92 367.02L330.42 362.143L404.42 435.874C451.629 482.911 479.742 510.204 482.071 511.26C487.538 513.738 496.626 513.432 502.013 510.588C508.807 507.001 512.275 501.316 512.746 492.996C513.03 487.954 512.67 485.148 511.371 482.289C510.181 479.671 485.686 454.422 435.824 404.415L362.038 330.415L364.497 327.415C369.436 321.389 378.47 307.169 383.557 297.415C396.786 272.047 403.847 246.72 406.051 216.732C410.276 159.249 388.883 102.196 347.515 60.6271C316.006 28.9651 275.925 8.8151 231.792 2.4481C222.143 1.0561 189.321 0.468098 181.92 1.5541ZM192.92 44.5171C135.065 49.3071 86.5352 82.0571 60.4062 133.943C49.8952 154.815 44.5312 178.604 44.6302 203.915C44.7702 239.955 55.3342 271.315 76.9692 299.915C115.299 350.586 181.266 373.657 242.857 357.931C298.812 343.645 343.65 298.807 357.936 242.852C379.321 159.095 329.439 73.4911 245.529 49.9451C231.199 45.9251 206.59 43.3851 192.92 44.5171Z" fill="black"/>
</g>
<defs>
<clipPath id="clip0_13_3">
<rect width="512" height="512" fill="black" transform="translate(0.919922 0.915039)"/>
</clipPath>
</defs>
</svg>
